<svg height="1230" width="720" xmlns="http://www.w3.org/2000/svg">
<rect height="1230" fill="#555" width="720"></rect>
<text fill="#7f7" font-family="Courier New" font-size="12" xml:space="preserve">
<tspan x="10" y="26">7 megabytes installed</tspan>
<tspan x="10" y="42"></tspan>
<tspan x="10" y="58">node_modules</tspan>
<tspan x="10" y="74">└─┬ coveralls@2.13.0 </tspan>
<tspan x="10" y="90">  ├─┬ js-yaml@3.6.1 </tspan>
<tspan x="10" y="106">  │ ├─┬ argparse@1.0.9 </tspan>
<tspan x="10" y="122">  │ │ └── sprintf-js@1.0.3 </tspan>
<tspan x="10" y="138">  │ └── esprima@2.7.3 </tspan>
<tspan x="10" y="154">  ├── lcov-parse@0.0.10 </tspan>
<tspan x="10" y="170">  ├── log-driver@1.2.5 </tspan>
<tspan x="10" y="186">  ├── minimist@1.2.0 </tspan>
<tspan x="10" y="202">  └─┬ request@2.79.0 </tspan>
<tspan x="10" y="218">    ├── aws-sign2@0.6.0 </tspan>
<tspan x="10" y="234">    ├── aws4@1.6.0 </tspan>
<tspan x="10" y="250">    ├── caseless@0.11.0 </tspan>
<tspan x="10" y="266">    ├─┬ combined-stream@1.0.5 </tspan>
<tspan x="10" y="282">    │ └── delayed-stream@1.0.0 </tspan>
<tspan x="10" y="298">    ├── extend@3.0.0 </tspan>
<tspan x="10" y="314">    ├── forever-agent@0.6.1 </tspan>
<tspan x="10" y="330">    ├─┬ form-data@2.1.4 </tspan>
<tspan x="10" y="346">    │ └── asynckit@0.4.0 </tspan>
<tspan x="10" y="362">    ├─┬ har-validator@2.0.6 </tspan>
<tspan x="10" y="378">    │ ├─┬ chalk@1.1.3 </tspan>
<tspan x="10" y="394">    │ │ ├── ansi-styles@2.2.1 </tspan>
<tspan x="10" y="410">    │ │ ├── escape-string-regexp@1.0.5 </tspan>
<tspan x="10" y="426">    │ │ ├─┬ has-ansi@2.0.0 </tspan>
<tspan x="10" y="442">    │ │ │ └── ansi-regex@2.1.1 </tspan>
<tspan x="10" y="458">    │ │ ├── strip-ansi@3.0.1 </tspan>
<tspan x="10" y="474">    │ │ └── supports-color@2.0.0 </tspan>
<tspan x="10" y="490">    │ ├─┬ commander@2.9.0 </tspan>
<tspan x="10" y="506">    │ │ └── graceful-readlink@1.0.1 </tspan>
<tspan x="10" y="522">    │ ├─┬ is-my-json-valid@2.16.0 </tspan>
<tspan x="10" y="538">    │ │ ├── generate-function@2.0.0 </tspan>
<tspan x="10" y="554">    │ │ ├─┬ generate-object-property@1.2.0 </tspan>
<tspan x="10" y="570">    │ │ │ └── is-property@1.0.2 </tspan>
<tspan x="10" y="586">    │ │ ├── jsonpointer@4.0.1 </tspan>
<tspan x="10" y="602">    │ │ └── xtend@4.0.1 </tspan>
<tspan x="10" y="618">    │ └─┬ pinkie-promise@2.0.1 </tspan>
<tspan x="10" y="634">    │   └── pinkie@2.0.4 </tspan>
<tspan x="10" y="650">    ├─┬ hawk@3.1.3 </tspan>
<tspan x="10" y="666">    │ ├── boom@2.10.1 </tspan>
<tspan x="10" y="682">    │ ├── cryptiles@2.0.5 </tspan>
<tspan x="10" y="698">    │ ├── hoek@2.16.3 </tspan>
<tspan x="10" y="714">    │ └── sntp@1.0.9 </tspan>
<tspan x="10" y="730">    ├─┬ http-signature@1.1.1 </tspan>
<tspan x="10" y="746">    │ ├── assert-plus@0.2.0 </tspan>
<tspan x="10" y="762">    │ ├─┬ jsprim@1.4.0 </tspan>
<tspan x="10" y="778">    │ │ ├── assert-plus@1.0.0 </tspan>
<tspan x="10" y="794">    │ │ ├── extsprintf@1.0.2 </tspan>
<tspan x="10" y="810">    │ │ ├── json-schema@0.2.3 </tspan>
<tspan x="10" y="826">    │ │ └── verror@1.3.6 </tspan>
<tspan x="10" y="842">    │ └─┬ sshpk@1.13.0 </tspan>
<tspan x="10" y="858">    │   ├── asn1@0.2.3 </tspan>
<tspan x="10" y="874">    │   ├── assert-plus@1.0.0 </tspan>
<tspan x="10" y="890">    │   ├── bcrypt-pbkdf@1.0.1 </tspan>
<tspan x="10" y="906">    │   ├─┬ dashdash@1.14.1 </tspan>
<tspan x="10" y="922">    │   │ └── assert-plus@1.0.0 </tspan>
<tspan x="10" y="938">    │   ├── ecc-jsbn@0.1.1 </tspan>
<tspan x="10" y="954">    │   ├─┬ getpass@0.1.6 </tspan>
<tspan x="10" y="970">    │   │ └── assert-plus@1.0.0 </tspan>
<tspan x="10" y="986">    │   ├── jodid25519@1.0.2 </tspan>
<tspan x="10" y="1002">    │   ├── jsbn@0.1.1 </tspan>
<tspan x="10" y="1018">    │   └── tweetnacl@0.14.5 </tspan>
<tspan x="10" y="1034">    ├── is-typedarray@1.0.0 </tspan>
<tspan x="10" y="1050">    ├── isstream@0.1.2 </tspan>
<tspan x="10" y="1066">    ├── json-stringify-safe@5.0.1 </tspan>
<tspan x="10" y="1082">    ├─┬ mime-types@2.1.15 </tspan>
<tspan x="10" y="1098">    │ └── mime-db@1.27.0 </tspan>
<tspan x="10" y="1114">    ├── oauth-sign@0.8.2 </tspan>
<tspan x="10" y="1130">    ├── qs@6.3.2 </tspan>
<tspan x="10" y="1146">    ├── stringstream@0.0.5 </tspan>
<tspan x="10" y="1162">    ├─┬ tough-cookie@2.3.2 </tspan>
<tspan x="10" y="1178">    │ └── punycode@1.4.1 </tspan>
<tspan x="10" y="1194">    ├── tunnel-agent@0.4.3 </tspan>
<tspan x="10" y="1210">    └── uuid@3.0.1</tspan>
</text>
</svg>
